<?xml version="1.0" encoding="UTF-8"?>
<!-- Uploaded to: SVG Find, www.svgrepo.com, Generator: SVG Find Mixer Tools -->
<svg width="800px" height="800px" version="1.1" viewBox="144 144 512 512" xmlns="http://www.w3.org/2000/svg">
 <defs>
  <clipPath id="c">
   <path d="m478 478h122v173.9h-122z"/>
  </clipPath>
  <clipPath id="b">
   <path d="m200 148.09h122v134.91h-122z"/>
  </clipPath>
  <clipPath id="a">
   <path d="m200 478h122v173.9h-122z"/>
  </clipPath>
 </defs>
 <g clip-path="url(#c)">
  <path d="m557.14 533.07 40.043-40.043c3.3867-3.3867 3.3867-8.8594 0-12.246-3.3867-3.3867-8.8594-3.3867-12.246 0l-39.871 39.871c-1.7383-2.1719-4.4297-3.6484-7.4688-3.3008-2.1719 0.17188-3.9102 1.2148-5.2969 2.6914l-39.262-39.262c-3.3867-3.3867-8.8594-3.3867-12.246 0-3.3867 3.3867-3.3867 8.8594 0 12.246l40.043 40.043c-24.676 7.7305-42.656 30.836-42.656 58.023 0 33.531 27.273 60.805 60.805 60.805s60.805-27.273 60.805-60.805c0-27.188-17.98-50.293-42.648-58.023zm-18.156 101.46c-23.973 0-43.434-19.457-43.434-43.434 0-23.973 19.457-43.434 43.434-43.434 23.973 0 43.434 19.457 43.434 43.434 0 23.977-19.461 43.434-43.434 43.434z"/>
 </g>
 <g clip-path="url(#b)">
  <path d="m252.33 269.01v5.0391c0 4.7773 3.9102 8.6875 8.6875 8.6875 0.085938 0 0.17188-0.085937 0.34766-0.085937 0.085937 0 0.17187 0.085937 0.26172 0.085937h0.78125c4.7773-0.43359 8.2539-4.6914 7.8164-9.4688-0.17187-1.3906-0.085937-2.8672-0.17187-4.2578 29.27-4.4297 51.766-29.707 51.766-60.109 0-33.531-27.273-60.805-60.805-60.805-33.527 0-60.805 27.273-60.805 60.805 0 30.574 22.672 55.852 52.121 60.109zm8.6836-103.54c23.973 0 43.434 19.457 43.434 43.434 0 23.973-19.457 43.434-43.434 43.434-23.973 0-43.43-19.461-43.43-43.434 0-23.973 19.457-43.434 43.43-43.434z"/>
 </g>
 <path d="m269.7 439.61c0-4.7773-3.9102-8.6875-8.6875-8.6875s-8.6875 3.9102-8.6875 8.6875v14.418c0 4.7773 3.9102 8.6875 8.6875 8.6875s8.6875-3.9102 8.6875-8.6875z"/>
 <path d="m261.02 474.09c-4.7773 0-8.6875 3.9102-8.6875 8.6875v14.418c0 4.7773 3.9102 8.6875 8.6875 8.6875s8.6875-3.9102 8.6875-8.6875v-14.418c0-4.7773-3.9102-8.6875-8.6875-8.6875z"/>
 <path d="m269.7 346.05c0-4.7773-3.9102-8.6875-8.6875-8.6875s-8.6875 3.9102-8.6875 8.6875v14.418c0 4.7773 3.9102 8.6875 8.6875 8.6875s8.6875-3.9102 8.6875-8.6875z"/>
 <path d="m269.7 389.23c0-4.7773-3.9102-8.6875-8.6875-8.6875s-8.6875 3.9102-8.6875 8.6875v21.629c0 4.7773 3.9102 8.6875 8.6875 8.6875s8.6875-3.9102 8.6875-8.6875z"/>
 <path d="m504.5 461.06c1.7383 2.2578 4.3438 3.4727 6.9492 3.4727 1.8242 0 3.6484-0.51953 5.2109-1.7383 3.8203-2.8672 4.6055-8.3398 1.7383-12.16-3.2148-4.2578-6.6875-8.4258-10.336-12.422-3.3008-3.4727-8.7734-3.7344-12.246-0.43359s-3.7344 8.7734-0.43359 12.246c3.2109 3.5664 6.25 7.2148 9.1172 11.035z"/>
 <path d="m518.91 485.56c1.9102 4.3438 3.6484 8.7734 5.125 13.289 1.2148 3.6484 4.6055 5.9922 8.2539 5.9922 0.86719 0 1.8242-0.17188 2.6914-0.43359 4.6055-1.4766 7.0352-6.3398 5.5586-10.945-1.6523-5.125-3.5625-10.164-5.8203-15.113-1.9961-4.3438-7.1211-6.3398-11.465-4.3438-4.3438 2.0859-6.3398 7.2109-4.3438 11.555z"/>
 <path d="m485.91 429.36c2.6914-3.9961 1.7383-9.3828-2.2578-12.074-6.6875-4.6055-13.723-8.6875-21.02-12.074-4.3438-1.9961-9.5547-0.17188-11.555 4.168-1.9961 4.3438-0.17188 9.5547 4.168 11.555 6.4297 2.9531 12.594 6.5156 18.504 10.598 1.4766 1.043 3.2148 1.5625 4.9531 1.5625 2.7773 0 5.5586-1.3047 7.207-3.7344z"/>
 <path d="m432.14 394.79c-5.2969-1.1289-10.684-2.0859-15.984-2.6055-4.6914-0.51953-9.0352 2.9531-9.5547 7.7305-0.51953 4.7773 2.9531 9.0352 7.7305 9.5547 4.6914 0.51953 9.3828 1.3047 14.07 2.3438 0.60937 0.17188 1.3047 0.17188 1.9102 0.17188 3.9961 0 7.5586-2.7812 8.5117-6.7734 0.96094-4.6875-1.9922-9.3789-6.6836-10.422z"/>
 <path d="m385.84 390.53c-4.6914-0.51953-9.3828-1.3047-14.07-2.2578-4.6914-1.043-9.293 1.9102-10.336 6.6016-1.043 4.6914 1.9102 9.293 6.6016 10.336 5.2969 1.1289 10.598 1.9961 15.895 2.6055 0.34766 0 0.60937 0.085938 0.95703 0.085938 4.3438 0 8.1641-3.3008 8.5977-7.7305 0.60547-4.8633-2.8672-9.1211-7.6445-9.6406z"/>
 <path d="m276.82 326.08c4.3438-1.9961 6.3398-7.1211 4.3438-11.465-1.9102-4.3438-3.6484-8.7734-5.125-13.289-1.3906-4.4297-5.9922-6.7734-10.422-5.6445-1.3906-0.875-2.8672-1.5664-4.6055-1.5664-4.7773 0-8.6875 3.9102-8.6875 8.6875v14.418c0 4.7773 3.9102 8.6875 8.6875 8.6875 2.1719 0 4.082-0.86719 5.6445-2.1719 1.6523 1.9961 4.082 3.1289 6.6016 3.1289 1.2188-0.003906 2.4336-0.26562 3.5625-0.78516z"/>
 <path d="m292.03 361.87c1.7383 1.8242 3.9961 2.7812 6.3398 2.7812 2.0859 0 4.2578-0.78125 5.9062-2.3438 3.4727-3.3008 3.7344-8.7734 0.43359-12.246-3.2148-3.4727-6.3398-7.1211-9.1211-10.945-2.8672-3.8203-8.3398-4.6055-12.16-1.7383-3.8203 2.8672-4.6055 8.3398-1.7383 12.16 3.2148 4.25 6.6914 8.4219 10.34 12.332z"/>
 <path d="m344.84 379.15c-6.4297-3.0391-12.684-6.6016-18.504-10.598-3.9961-2.6914-9.3828-1.7383-12.074 2.2578-2.6914 3.9961-1.7383 9.3828 2.2578 12.074 6.6016 4.6055 13.723 8.5977 21.02 11.988 1.2148 0.51953 2.4336 0.78125 3.6484 0.78125 3.3008 0 6.4297-1.8242 7.9062-5.0391 2-4.2578 0.089844-9.4688-4.2539-11.465z"/>
 <g clip-path="url(#a)">
  <path d="m319.3 480.7c-3.3867-3.3867-8.8594-3.3867-12.246 0l-39.523 39.523c-1.6484-1.7383-3.9102-2.9531-6.5156-2.9531s-4.8633 1.2148-6.4297 2.9531l-39.523-39.523c-3.3867-3.3867-8.8594-3.3867-12.246 0-3.3867 3.3867-3.3867 8.8594 0 12.246l40.043 40.043c-24.668 7.8203-42.648 30.926-42.648 58.113 0 33.531 27.273 60.805 60.805 60.805s60.805-27.273 60.805-60.805c0-27.188-17.98-50.293-42.648-58.023l40.043-40.043c3.4766-3.3906 3.4766-8.9492 0.085937-12.336zm-14.852 110.4c0 23.973-19.457 43.434-43.434 43.434-23.973 0-43.434-19.457-43.434-43.434 0-23.973 19.457-43.434 43.434-43.434 23.977 0.003907 43.434 19.461 43.434 43.434z"/>
 </g>
</svg>