<svg xmlns="http://www.w3.org/2000/svg"  viewBox="0 0 80 80" width="80px" height="80px" baseProfile="basic"><path fill="#36404d" d="M63.688,41.878C63.396,30.352,54.388,21.281,43,20.778V12h-2v8.77 c-5.618,0.257-10.832,2.615-14.72,6.704c-3.993,4.198-6.112,9.701-5.967,15.494c0.103,4.06,1.306,7.805,3.294,10.993l-6.926,4.721 l1.159,1.701l6.938-4.729c3.951,5.16,10.159,8.463,17.211,8.463c0.185,0,0.371-0.003,0.556-0.008 c5.793-0.146,11.182-2.537,15.175-6.736c0.531-0.559,1.024-1.144,1.488-1.746l6.977,4.756l1.189-1.745l-6.96-4.744 C62.648,50.325,63.796,46.183,63.688,41.878z M62.688,41.903c0.103,4.092-0.985,8.03-3.101,11.426l-2.453-1.672 c1.702-2.801,2.661-6.095,2.573-9.607C59.471,32.7,52.211,25.324,43,24.826V21.77C53.842,22.272,62.41,30.924,62.688,41.903z M44.027,44l5.979,10.134l2.225-3.264l2.884,1.966c-2.975,3.765-7.536,6.235-12.699,6.365c-0.141,0.005-0.285,0.006-0.426,0.006 c-5.351,0-10.071-2.469-13.12-6.342l2.926-1.995l2.225,3.264L40,44l-11.618,1.86l2.255,3.309l-2.938,2.003 c-1.453-2.41-2.329-5.22-2.405-8.259C25.068,33.898,32.067,26.367,41,25.832V30h-4.013l5.006,10.648L47,30h-4v-4.169 c8.664,0.497,15.485,7.442,15.707,16.245c0.082,3.294-0.812,6.385-2.401,9.018l-2.886-1.968l2.225-3.265L44.027,44z M21.313,42.942 c-0.139-5.525,1.882-10.774,5.691-14.78c3.698-3.888,8.655-6.135,13.995-6.39v3.057c-9.496,0.536-16.945,8.534-16.706,18.109 c0.082,3.239,1.021,6.233,2.578,8.797l-2.443,1.665C22.547,50.364,21.411,46.8,21.313,42.942z M56.996,56.683 c-3.809,4.006-8.95,6.287-14.477,6.426c-6.936,0.192-13.055-2.98-16.921-8.014l2.443-1.665c3.23,4.137,8.252,6.777,13.949,6.777 c0.152,0,0.307-0.001,0.455-0.006c5.494-0.138,10.348-2.777,13.499-6.799l2.438,1.662C57.95,55.622,57.49,56.164,56.996,56.683z"/><path fill="#36404d" d="M74.823,50.892l0.168-0.718c0.599-2.561,0.902-5.174,0.902-7.768 c0-13.879-8.315-26.211-21.185-31.417l-0.685-0.275l-1.198-7.997H31.175l-1.198,7.997l-0.685,0.275 C16.423,16.195,8.107,28.527,8.107,42.406c0,2.595,0.304,5.207,0.902,7.766l0.168,0.716l-5.835,5.598l12.504,17.677l7.223-3.641 l0.622,0.4c5.469,3.518,11.8,5.377,18.309,5.377c6.513,0,12.844-1.858,18.31-5.376l0.621-0.399l7.224,3.639l12.503-17.675 L74.823,50.892z M67.836,72.881l-6.966-3.508l-1.102,0.709C54.465,73.495,48.32,75.299,42,75.299 c-6.316,0-12.461-1.805-17.768-5.219l-1.103-0.709l-6.965,3.51L4.657,56.61l5.624-5.395l-0.297-1.272 c-0.582-2.483-0.877-5.019-0.877-7.537c0-13.47,8.07-25.438,20.559-30.489l1.215-0.49l1.155-7.71h19.929l1.155,7.71l1.214,0.49 c12.489,5.052,20.56,17.02,20.56,30.489c0,2.518-0.295,5.054-0.877,7.54L73.72,51.22l5.623,5.393L67.836,72.881z"/></svg>